<?xml version="1.0" encoding="utf-8"?>
<!-- Generator: Adobe Illustrator 22.1.0, SVG Export Plug-In . SVG Version: 6.00 Build 0)  -->
<svg version="1.1" id="ic_warning" xmlns="http://www.w3.org/2000/svg" xmlns:xlink="http://www.w3.org/1999/xlink" x="0px" y="0px"
	 viewBox="0 0 48 44" style="enable-background:new 0 0 48 44;" xml:space="preserve">
<style type="text/css">
	.st0{fill:none;stroke:#FFFFFF;stroke-width:2;}
	.st1{fill:#FFFFFF;}
</style>
<path id="多边形_4" class="st0" d="M38,43c-9.2-0.1-18.4-0.1-27.6,0C1.2,43-1.1,39,3.6,31c4.7-8,9.3-16,13.9-24s9.1-8,13.7,0
	c4.5,8,9.1,16.1,13.8,24.1S47.2,43.1,38,43z"/>
<path id="_" class="st1" d="M23.4,28.8h1.5L25.3,16h-2.3L23.4,28.8z M24.2,30.6c-0.4,0-0.8,0.1-1,0.4c-0.3,0.3-0.4,0.6-0.4,1
	c0,0.4,0.1,0.8,0.4,1.1c0.3,0.3,0.7,0.4,1,0.4c0.4,0,0.8-0.1,1.1-0.4c0.3-0.3,0.4-0.7,0.4-1.1c0-0.4-0.1-0.8-0.4-1
	C25,30.7,24.6,30.6,24.2,30.6L24.2,30.6z"/>
</svg>
